<svg width="80" height="80" viewBox="0 0 100 100" fill="none" xmlns="http://www.w3.org/2000/svg">
  <!-- Central dot -->
  <circle cx="50" cy="50" r="4" fill="#3B82F6"></circle>

  <!-- Outer small dots -->
  <circle cx="20" cy="50" r="2" fill="#6366F1"></circle>
  <circle cx="80" cy="50" r="2" fill="#6366F1"></circle>
  <circle cx="50" cy="20" r="2" fill="#6366F1"></circle>
  <circle cx="50" cy="80" r="2" fill="#6366F1"></circle>
  <circle cx="30" cy="30" r="2" fill="#6366F1"></circle>
  <circle cx="70" cy="30" r="2" fill="#6366F1"></circle>
  <circle cx="30" cy="70" r="2" fill="#6366F1"></circle>
  <circle cx="70" cy="70" r="2" fill="#6366F1"></circle>

  <!-- Connecting lines -->
  <line x1="50" y1="50" x2="20" y2="50" stroke="#93C5FD" stroke-width="1"></line>
  <line x1="50" y1="50" x2="80" y2="50" stroke="#93C5FD" stroke-width="1"></line>
  <line x1="50" y1="50" x2="50" y2="20" stroke="#93C5FD" stroke-width="1"></line>
  <line x1="50" y1="50" x2="50" y2="80" stroke="#93C5FD" stroke-width="1"></line>
  <line x1="50" y1="50" x2="30" y2="30" stroke="#93C5FD" stroke-width="1"></line>
  <line x1="50" y1="50" x2="70" y2="30" stroke="#93C5FD" stroke-width="1"></line>
  <line x1="50" y1="50" x2="30" y2="70" stroke="#93C5FD" stroke-width="1"></line>
  <line x1="50" y1="50" x2="70" y2="70" stroke="#93C5FD" stroke-width="1"></line>
</svg>
